TITLE ""
FILE "1Q_t_0139-0148.mp3" MP3
  TRACK 01 AUDIO
    TITLE "1Q_t_0139-0148_01"
    INDEX 01 00:00:00
  TRACK 02 AUDIO
    TITLE "1Q_t_0139-0148_02"
    INDEX 01 00:01:27
  TRACK 03 AUDIO
    TITLE "1Q_t_0139-0148_03"
    INDEX 01 00:01:43
  TRACK 04 AUDIO
    TITLE "1Q_t_0139-0148_04"
    INDEX 01 00:02:62
  TRACK 05 AUDIO
    TITLE "1Q_t_0139-0148_05"
    INDEX 01 00:03:05
  TRACK 06 AUDIO
    TITLE "1Q_t_0139-0148_06"
    INDEX 01 00:10:26
  TRACK 07 AUDIO
    TITLE "1Q_t_0139-0148_07"
    INDEX 01 00:11:04
  TRACK 08 AUDIO
    TITLE "1Q_t_0139-0148_08"
    INDEX 01 00:12:10
  TRACK 09 AUDIO
    TITLE "1Q_t_0139-0148_09"
    INDEX 01 00:12:27
  TRACK 10 AUDIO
    TITLE "1Q_t_0139-0148_10"
    INDEX 01 00:14:30
  TRACK 11 AUDIO
    TITLE "1Q_t_0139-0148_11"
    INDEX 01 00:14:44
  TRACK 12 AUDIO
    TITLE "1Q_t_0139-0148_12"
    INDEX 01 00:21:26
  TRACK 13 AUDIO
    TITLE "1Q_t_0139-0148_13"
    INDEX 01 00:22:04
  TRACK 14 AUDIO
    TITLE "1Q_t_0139-0148_14"
    INDEX 01 00:23:25
  TRACK 15 AUDIO
    TITLE "1Q_t_0139-0148_15"
    INDEX 01 00:23:41
  TRACK 16 AUDIO
    TITLE "1Q_t_0139-0148_16"
    INDEX 01 00:25:51
  TRACK 17 AUDIO
    TITLE "1Q_t_0139-0148_17"
    INDEX 01 00:25:65
  TRACK 18 AUDIO
    TITLE "1Q_t_0139-0148_18"
    INDEX 01 00:30:72
  TRACK 19 AUDIO
    TITLE "1Q_t_0139-0148_19"
    INDEX 01 00:31:50
  TRACK 20 AUDIO
    TITLE "1Q_t_0139-0148_20"
    INDEX 01 00:33:04
  TRACK 21 AUDIO
    TITLE "1Q_t_0139-0148_21"
    INDEX 01 00:33:22
  TRACK 22 AUDIO
    TITLE "1Q_t_0139-0148_22"
    INDEX 01 00:34:44
  TRACK 23 AUDIO
    TITLE "1Q_t_0139-0148_23"
    INDEX 01 00:34:60
  TRACK 24 AUDIO
    TITLE "1Q_t_0139-0148_24"
    INDEX 01 00:39:30
  TRACK 25 AUDIO
    TITLE "1Q_t_0139-0148_25"
    INDEX 01 00:40:10
  TRACK 26 AUDIO
    TITLE "1Q_t_0139-0148_26"
    INDEX 01 00:41:17
  TRACK 27 AUDIO
    TITLE "1Q_t_0139-0148_27"
    INDEX 01 00:41:35
  TRACK 28 AUDIO
    TITLE "1Q_t_0139-0148_28"
    INDEX 01 00:43:65
  TRACK 29 AUDIO
    TITLE "1Q_t_0139-0148_29"
    INDEX 01 00:44:08
  TRACK 30 AUDIO
    TITLE "1Q_t_0139-0148_30"
    INDEX 01 00:49:17
  TRACK 31 AUDIO
    TITLE "1Q_t_0139-0148_31"
    INDEX 01 00:49:73
  TRACK 32 AUDIO
    TITLE "1Q_t_0139-0148_32"
    INDEX 01 00:51:31
  TRACK 33 AUDIO
    TITLE "1Q_t_0139-0148_33"
    INDEX 01 00:51:47
  TRACK 34 AUDIO
    TITLE "1Q_t_0139-0148_34"
    INDEX 01 00:53:48
  TRACK 35 AUDIO
    TITLE "1Q_t_0139-0148_35"
    INDEX 01 00:53:61
  TRACK 36 AUDIO
    TITLE "1Q_t_0139-0148_36"
    INDEX 01 00:58:02
  TRACK 37 AUDIO
    TITLE "1Q_t_0139-0148_37"
    INDEX 01 00:58:53
  TRACK 38 AUDIO
    TITLE "1Q_t_0139-0148_38"
    INDEX 01 00:59:62
  TRACK 39 AUDIO
    TITLE "1Q_t_0139-0148_39"
    INDEX 01 01:00:03
  TRACK 40 AUDIO
    TITLE "1Q_t_0139-0148_40"
    INDEX 01 01:02:54
  TRACK 41 AUDIO
    TITLE "1Q_t_0139-0148_41"
    INDEX 01 01:02:68
  TRACK 42 AUDIO
    TITLE "1Q_t_0139-0148_42"
    INDEX 01 01:08:49
  TRACK 43 AUDIO
    TITLE "1Q_t_0139-0148_43"
    INDEX 01 01:09:27
  TRACK 44 AUDIO
    TITLE "1Q_t_0139-0148_44"
    INDEX 01 01:10:31
  TRACK 45 AUDIO
    TITLE "1Q_t_0139-0148_45"
    INDEX 01 01:10:46
  TRACK 46 AUDIO
    TITLE "1Q_t_0139-0148_46"
    INDEX 01 01:11:52
  TRACK 47 AUDIO
    TITLE "1Q_t_0139-0148_47"
    INDEX 01 01:11:67
  TRACK 48 AUDIO
    TITLE "1Q_t_0139-0148_48"
    INDEX 01 01:18:18
  TRACK 49 AUDIO
    TITLE "1Q_t_0139-0148_49"
    INDEX 01 01:18:71
  TRACK 50 AUDIO
    TITLE "1Q_t_0139-0148_50"
    INDEX 01 01:20:17
  TRACK 51 AUDIO
    TITLE "1Q_t_0139-0148_51"
    INDEX 01 01:20:35
  TRACK 52 AUDIO
    TITLE "1Q_t_0139-0148_52"
    INDEX 01 01:23:21
  TRACK 53 AUDIO
    TITLE "1Q_t_0139-0148_53"
    INDEX 01 01:23:37
  TRACK 54 AUDIO
    TITLE "1Q_t_0139-0148_54"
    INDEX 01 01:30:39
  TRACK 55 AUDIO
    TITLE "1Q_t_0139-0148_55"
    INDEX 01 01:31:17
  TRACK 56 AUDIO
    TITLE "1Q_t_0139-0148_56"
    INDEX 01 01:32:48
  TRACK 57 AUDIO
    TITLE "1Q_t_0139-0148_57"
    INDEX 01 01:32:63
  TRACK 58 AUDIO
    TITLE "1Q_t_0139-0148_58"
    INDEX 01 01:33:75
  TRACK 59 AUDIO
    TITLE "1Q_t_0139-0148_59"
    INDEX 01 01:34:17
  TRACK 60 AUDIO
    TITLE "1Q_t_0139-0148_60"
    INDEX 01 01:40:53
